<?xml version="1.0" encoding="UTF-8" standalone="no"?>
<!-- Created with Inkscape (http://www.inkscape.org/) -->

<svg
   width="297mm"
   height="210mm"
   viewBox="0 0 297 210"
   version="1.1"
   id="svg1"
   inkscape:version="1.3 (0e150ed6c4, 2023-07-21)"
   sodipodi:docname="piscine.svg"
   xml:space="preserve"
   inkscape:export-filename="symbolesvg\toilette.svg"
   inkscape:export-xdpi="96"
   inkscape:export-ydpi="96"
   xmlns:inkscape="http://www.inkscape.org/namespaces/inkscape"
   xmlns:sodipodi="http://sodipodi.sourceforge.net/DTD/sodipodi-0.dtd"
   xmlns="http://www.w3.org/2000/svg"
   xmlns:svg="http://www.w3.org/2000/svg"><sodipodi:namedview
     id="namedview1"
     pagecolor="#ffffff"
     bordercolor="#000000"
     borderopacity="0.25"
     inkscape:showpageshadow="2"
     inkscape:pageopacity="0.0"
     inkscape:pagecheckerboard="0"
     inkscape:deskcolor="#d1d1d1"
     inkscape:document-units="mm"
     inkscape:zoom="0.34609638"
     inkscape:cx="757.01456"
     inkscape:cy="299.04965"
     inkscape:window-width="1920"
     inkscape:window-height="991"
     inkscape:window-x="-9"
     inkscape:window-y="-9"
     inkscape:window-maximized="1"
     inkscape:current-layer="layer1" /><defs
     id="defs1" /><g
     inkscape:label="Calque 1"
     inkscape:groupmode="layer"
     id="layer1"><path
       style="fill:#000080;stroke-width:11.5569"
       d="m 16.916486,182.9358 v -11.96453 l 5.038717,-0.67969 c 3.355066,-0.45181 7.087244,-1.47007 11.168946,-3.04643 12.212323,-4.71636 21.198402,-4.79051 32.405252,-0.26663 12.089257,4.87928 22.416018,5.00342 33.539784,0.40353 5.715295,-2.36348 8.884925,-3.14604 14.370005,-3.54769 6.24458,-0.45734 11.5315,0.48426 19.0412,3.38848 12.38888,4.79258 21.23022,4.7231 34.13104,-0.26823 11.47905,-4.44102 20.58388,-4.38982 32.03742,0.18041 12.04687,4.80681 21.7771,4.77595 34.20021,-0.10359 6.89364,-2.71006 12.30196,-3.64468 18.47578,-3.19258 5.48515,0.40118 8.65478,1.18437 14.37,3.54769 4.50038,1.86112 10.58776,3.32345 13.8982,3.33864 l 2.06836,0.008 v 12.08592 12.08597 l -3.84132,-0.31887 c -3.37458,-0.27933 -7.13251,-1.37189 -15.73876,-4.57348 -3.27222,-1.21734 -9.85282,-2.36111 -13.58475,-2.36111 -4.65058,0 -10.69708,1.35353 -17.13197,3.83499 -11.88903,4.58469 -20.59987,4.43855 -33.26327,-0.55785 -10.82934,-4.27279 -20.6093,-4.27279 -31.43856,0 -12.20233,4.81449 -21.33659,5.10876 -31.98991,1.03007 -14.12292,-5.40619 -23.47748,-5.5873 -35.443665,-0.68524 -10.929214,4.47678 -21.461324,4.63575 -31.584257,0.47714 -9.391338,-3.85825 -17.407769,-4.9069 -25.345675,-3.31529 -2.556701,0.51274 -5.528817,1.30699 -6.604499,1.76545 -5.205762,2.21814 -11.396525,4.02378 -14.900884,4.34607 l -3.877394,0.35606 z m 60.565192,-33.55383 c -2.029656,-0.25875 -5.752638,-1.23801 -8.273196,-2.17572 -2.520558,-0.93812 -5.338103,-1.98439 -6.261292,-2.32558 -0.923669,-0.34183 -1.742264,-0.82655 -1.820229,-1.07952 -0.151133,-0.48741 22.689577,-13.13638 55.620349,-30.80302 10.99031,-5.89605 34.54126,-18.858596 34.9522,-19.237768 0.26388,-0.243708 -5.07206,-10.319422 -11.85832,-22.390688 -6.78618,-12.071107 -12.76263,-23.080901 -13.28089,-24.466313 -1.19194,-3.186235 -1.24816,-8.937253 -0.11992,-12.215116 1.07817,-3.130373 4.60819,-7.175282 7.5648,-8.66783 1.22761,-0.619555 4.73421,-1.581329 7.79244,-2.136713 3.05816,-0.555463 11.1448,-2.010189 17.97032,-3.232682 6.82544,-1.222494 15.63648,-2.819884 19.58009,-3.549659 3.94352,-0.730332 9.9003,-1.813643 13.23714,-2.408351 3.337,-0.594235 9.41781,-1.698277 13.51311,-2.452187 4.09521,-0.754068 9.80379,-1.758095 12.68563,-2.231583 2.88183,-0.473963 7.06965,-1.2528774 9.30642,-1.7321414 5.39967,-1.1569771 9.43763,-0.7580248 13.6615,1.3525756 10.90644,5.4478858 13.19533,19.5894778 4.52615,27.9631978 -4.53118,4.376682 -4.22268,4.303648 -59.73483,14.137555 -11.18416,1.98123 -11.50217,2.070087 -11.10211,3.101571 0.26469,0.683646 18.80764,33.873416 44.52234,79.691182 3.90154,6.95183 7.09381,12.86845 7.09381,13.1481 0,0.95188 -6.32752,1.94141 -12.13412,1.89766 -6.15838,-0.0475 -9.84395,-0.85993 -16.49283,-3.64247 -4.44778,-1.86105 -12.09045,-3.55314 -16.04869,-3.55314 -3.84188,0 -11.54373,1.67216 -15.7729,3.42441 -1.79056,0.7414 -4.99296,1.89086 -7.1165,2.55338 -7.62205,2.37797 -19.40216,1.40876 -26.94169,-2.21655 -3.3078,-1.59051 -9.95725,-3.25286 -14.45596,-3.61406 -5.0675,-0.40672 -11.03381,0.79323 -19.462214,3.91244 -4.156869,1.53868 -8.174679,2.61424 -11.13944,2.98217 -5.097731,0.63223 -4.78251,0.63301 -10.011622,-0.0317 z M 237.26142,125.64764 c -14.9136,-2.62681 -25.07924,-14.99234 -25.07924,-30.506454 0,-9.044865 2.78036,-15.755678 9.07204,-21.896468 16.43348,-16.039343 42.74945,-10.56843 51.50722,10.708245 7.25765,17.631987 -4.65232,38.355817 -24.00467,41.768907 -5.21672,0.91976 -5.87443,0.91627 -11.49535,-0.0807 z"
       id="path394" /></g></svg>
